<svg xmlns="http://www.w3.org/2000/svg" width="280" height="240" viewBox="0 0 280 240" role="img" aria-labelledby="panel-title"><title id="panel-title">CSG n-ary identity</title><desc>Single Gaia mesh panel generated from an IndexedMesh value.</desc><rect width="100%" height="100%" fill="white"/><g><rect x="0.0" y="0.0" width="280.0" height="240.0" rx="8" fill="#f8fafc" stroke="#cbd5e1"/><text x="140.0" y="21.0" text-anchor="middle" font-family="sans-serif" font-size="13" font-weight="600" fill="#0f172a">CSG n-ary identity</text><g stroke-linejoin="round"><polygon points="140.0,120.9 54.3,71.5 140.0,22.0" fill="#3e6991" stroke="#253f57" stroke-width="0.5"/><polygon points="140.0,120.9 140.0,22.0 225.7,71.5" fill="#3e6991" stroke="#253f57" stroke-width="0.5"/><polygon points="140.0,120.9 225.7,71.5 225.7,160.5" fill="#3e6991" stroke="#253f57" stroke-width="0.5"/><polygon points="140.0,120.9 225.7,160.5 140.0,210.0" fill="#3e6991" stroke="#253f57" stroke-width="0.5"/><polygon points="140.0,120.9 140.0,210.0 54.3,160.5" fill="#3e6991" stroke="#253f57" stroke-width="0.5"/><polygon points="140.0,120.9 54.3,160.5 54.3,71.5" fill="#3e6991" stroke="#253f57" stroke-width="0.5"/><polygon points="140.0,210.0 225.7,160.5 140.0,111.1" fill="#3e6991" stroke="#253f57" stroke-width="0.5"/><polygon points="140.0,210.0 140.0,111.1 54.3,160.5" fill="#3e6991" stroke="#253f57" stroke-width="0.5"/><polygon points="54.3,71.5 54.3,160.5 140.0,111.1" fill="#3e6991" stroke="#253f57" stroke-width="0.5"/><polygon points="54.3,71.5 140.0,111.1 140.0,22.0" fill="#3e6991" stroke="#253f57" stroke-width="0.5"/><polygon points="225.7,71.5 140.0,22.0 140.0,111.1" fill="#3e6991" stroke="#253f57" stroke-width="0.5"/><polygon points="225.7,71.5 140.0,111.1 225.7,160.5" fill="#3e6991" stroke="#253f57" stroke-width="0.5"/></g><g stroke="#0f172a" stroke-width="0.35" stroke-opacity="0.45"><line x1="140.0" y1="120.9" x2="54.3" y2="71.5"/><line x1="140.0" y1="120.9" x2="140.0" y2="22.0"/><line x1="140.0" y1="120.9" x2="225.7" y2="71.5"/><line x1="140.0" y1="120.9" x2="140.0" y2="210.0"/><line x1="140.0" y1="120.9" x2="225.7" y2="160.5"/><line x1="140.0" y1="120.9" x2="54.3" y2="160.5"/><line x1="54.3" y1="71.5" x2="140.0" y2="22.0"/><line x1="54.3" y1="71.5" x2="140.0" y2="111.1"/><line x1="54.3" y1="71.5" x2="54.3" y2="160.5"/><line x1="140.0" y1="22.0" x2="225.7" y2="71.5"/><line x1="140.0" y1="22.0" x2="140.0" y2="111.1"/><line x1="225.7" y1="71.5" x2="225.7" y2="160.5"/><line x1="225.7" y1="71.5" x2="140.0" y2="111.1"/><line x1="140.0" y1="210.0" x2="225.7" y2="160.5"/><line x1="140.0" y1="210.0" x2="140.0" y2="111.1"/><line x1="140.0" y1="210.0" x2="54.3" y2="160.5"/><line x1="225.7" y1="160.5" x2="140.0" y2="111.1"/><line x1="140.0" y1="111.1" x2="54.3" y2="160.5"/></g><text x="140.0" y="226.0" text-anchor="middle" font-family="monospace" font-size="9" fill="#475569">V=8 F=12 C=0</text></g></svg>
