<svg xmlns="http://www.w3.org/2000/svg" width="280" height="240" viewBox="0 0 280 240" role="img" aria-labelledby="panel-title"><title id="panel-title">Octahedron</title><desc>Single Gaia mesh panel generated from an IndexedMesh value.</desc><rect width="100%" height="100%" fill="white"/><g><rect x="0.0" y="0.0" width="280.0" height="240.0" rx="8" fill="#f8fafc" stroke="#cbd5e1"/><text x="140.0" y="21.0" text-anchor="middle" font-family="sans-serif" font-size="13" font-weight="600" fill="#0f172a">Octahedron</text><g stroke="#2563eb" stroke-width="0.7" stroke-linejoin="round"><polygon points="230.5,168.2 49.5,168.2 140.0,22.0" fill="#60a5fa" fill-opacity="0.28"/><polygon points="49.5,63.8 140.0,22.0 49.5,168.2" fill="#60a5fa" fill-opacity="0.28"/><polygon points="230.5,168.2 140.0,22.0 230.5,63.8" fill="#60a5fa" fill-opacity="0.28"/><polygon points="230.5,168.2 140.0,210.0 49.5,168.2" fill="#60a5fa" fill-opacity="0.28"/><polygon points="49.5,63.8 230.5,63.8 140.0,22.0" fill="#60a5fa" fill-opacity="0.28"/><polygon points="49.5,63.8 49.5,168.2 140.0,210.0" fill="#60a5fa" fill-opacity="0.28"/><polygon points="230.5,168.2 230.5,63.8 140.0,210.0" fill="#60a5fa" fill-opacity="0.28"/><polygon points="49.5,63.8 140.0,210.0 230.5,63.8" fill="#60a5fa" fill-opacity="0.28"/></g><g stroke="#0f172a" stroke-width="0.45" stroke-opacity="0.68"><line x1="49.5" y1="63.8" x2="140.0" y2="210.0"/><line x1="49.5" y1="63.8" x2="230.5" y2="63.8"/><line x1="49.5" y1="63.8" x2="140.0" y2="22.0"/><line x1="49.5" y1="63.8" x2="49.5" y2="168.2"/><line x1="140.0" y1="210.0" x2="230.5" y2="63.8"/><line x1="140.0" y1="210.0" x2="49.5" y2="168.2"/><line x1="140.0" y1="210.0" x2="230.5" y2="168.2"/><line x1="230.5" y1="63.8" x2="140.0" y2="22.0"/><line x1="230.5" y1="63.8" x2="230.5" y2="168.2"/><line x1="140.0" y1="22.0" x2="49.5" y2="168.2"/><line x1="140.0" y1="22.0" x2="230.5" y2="168.2"/><line x1="49.5" y1="168.2" x2="230.5" y2="168.2"/></g><text x="140.0" y="226.0" text-anchor="middle" font-family="monospace" font-size="9" fill="#475569">V=6 F=8 C=0</text></g></svg>
